<svg viewBox="0 0 26 32" fill="none" xmlns="http://www.w3.org/2000/svg"><path d="M13.14 0h-.1l-13.04 1.31v23.18l13.05 7.51 12.95-7.5v-23.19l-12.86-1.31Zm11.02 11.35-11.11-6.38v-.09h-.1l-.1-.1v.1l-11.01 6.47v-8.44l11.11-1.13 11.21 1.13v8.44Zm-11.2-4.97 11.1 6.29-4.34 2.44-6.86-3.94v1.31l5.7 3.29-.87.46-4.84-2.81v1.31l3.68 2.16-.78.47-2.9-1.69v1.32l1.84 1.03-1.74 1.03-11.02-6.29 11.02-6.38Zm-11.12 7.79 11.02 6.38v.94l-7.64-4.41v1.31l7.73 4.5v1.04l-7.73-4.41v1.31l7.73 4.5 7.83-4.6v-4.87l3.29-1.88v9.39l-11.12 6.47-11.11-6.38v-9.29Z" fill="#000"/></svg>