<svg viewBox="0 0 96 40" fill="none" xmlns="http://www.w3.org/2000/svg"><path d="M80.11 18a48.31 48.31 0 0 1-2.16-3.38c-.9-1.57-2.74-7-.22-8.34-.56 2.32 1.87 5.75 2.64 7.77.95 2.48 1.93 5.68 3.39 8.23a22.79 22.79 0 0 1-3.65-4.28Zm4.18-2.1c.22 2.04.5 4.07.82 6.09-.86-2.08-2-4.13-2.86-6.14-1.38-3.23-2.35-6.62-3.74-9.84l.08-.01c4.16-.55 5.42 7.21 5.7 9.9Zm.37 20.84c-.48 1.03-1.91 1.17-2.5.13-.41-.72.26-1.88.74-2.39a.94.94 0 0 1 .2-.16c.13.06.31.03.38-.11v-.02c.37.05.65.6 1.2.88.1.04.19.07.28.07.02.56-.08 1.12-.3 1.6Zm-9.32-4.3c-.67 1.92-1.5 4.1-2.94 5.56-.48.48-.9.46-1.28.22.46-2.63 1.08-4.8 2.3-7.27.73-1.47 1.63-2.92 2.3-4.44l.52-.38c-.12 2.23-.14 4.12-.9 6.31Zm-4.55-.71a16.5 16.5 0 0 1 3.06-3.64c-.68 1.33-1.31 2.68-1.94 3.99a20.15 20.15 0 0 0-1.82 4.92l-.07-.12c-.97-1.67-.1-3.68.77-5.15Zm-14.9-14.5a35.28 35.28 0 0 1-2.42-3.44c-.5-.82-.67-1.77-1.25-2.53-.1-.12-.25-.1-.35 0-.06-1.57.14-3.3.37-4.78a4.26 4.26 0 0 1 1.25-2.64c.97 5.67 2.5 11.33 5.35 16.32a17.85 17.85 0 0 1-2.95-2.92Zm3.08-10.26c.96 4.21-.9 8.53.32 12.56-1.05-2.46-2.13-4.9-3.02-7.45-.98-2.81-1-5.91-2.14-8.65 1.77-.8 4.18.6 4.84 3.54Zm-4.68 24.53c-.03-1.02 1.01-1.67 1.87-1.85 1.07-.23 1.14.85 1.2 1.76 0 .06.03.13.07.18-.78 1.23-3.1 1.65-3.14-.1Zm-7.1-6.79c-1.81 2.51-2.76 5.53-5 7.73-1 .97-1.98 1.18-2.79.91 1.77-5.15 5.74-8.92 10.37-11.31-.94.7-1.77 1.55-2.58 2.67Zm-9.5 4.86c.33-1.63 1.34-2.9 2.48-4.03 1.97-1.97 4.34-2.9 6.83-3.54-1.05.71-2.02 1.59-2.75 2.23a21.38 21.38 0 0 0-5.96 8.32 3.65 3.65 0 0 1-.6-2.98Zm-11.11-24.27c-.5-1.38-.1-2.41 1.17-3.09 1.54 4.4 3.35 8.87 5.9 12.78-3.18-2.5-5.83-5.74-7.07-9.7Zm2.74-3.65c.95.35 1.77.9 2.46 1.64 1.8 1.68 2.06 4.35 2.2 6.67.1 1.82.03 3.62.55 5.3a189.8 189.8 0 0 1-3.7-7.26c-.92-1.9-1.28-4.31-2.56-6.02.32-.12.66-.23 1.05-.33Zm-17.91 36.53h-.2c1.44-4.8 2.62-9.63 4.61-14.23-.31 1.13-.46 2.35-.6 3.33-.4 2.57-.83 5.47-.5 8.08-.75 1.35-1.63 2.6-3.31 2.82Zm-1.9-5.42c.73-2.57 2.56-4.63 4.35-6.7a34.05 34.05 0 0 0-3.48 11.9c-1.34-.9-1.19-4.12-.88-5.2Zm-1.55-14.86a18.35 18.35 0 0 1-3.68-1.89c-.48-.3-4.1-4.41-3.19-5.08 2.34 1.96 5.05 3.49 7.69 4.96 2.1 1.17 4.37 2.5 6.7 3.36-2.52-.34-5.03-.47-7.52-1.35Zm9.12 1.24c-2.39-1.65-5.26-2.77-7.81-4.11-2.45-1.3-4.79-2.82-7.2-4.17 5.92.21 11.83 3.16 15.01 8.28Zm4.79 11.53c-1.53-.07-2.11-1.6-1.35-2.8.88-1.37 2.38-.67 3.46-.05.1 1.17-.82 2.9-2.11 2.85Zm-18.2 2.24c-.64.03-.87-.66-.93-1.2-.09-.66.35-1.2.85-1.55a2 2 0 0 1 1.6-.36c.4.1.57.6.95.75-.25 1.14-1.31 2.3-2.46 2.36Zm14.74-26.16c1.47.36 1.21 2.53.87 3.59-.18.58-.53 1.2-1.03 1.57-1.01.19-2.04-.98-2.55-2.08-.92-1.98.72-3.56 2.71-3.08Zm21.17 1.66c-.52-1.38-.06-2.85 1.35-3.36 1.35-.49 2.25.63 2.27 1.93 0 .63-.19 1.22-.52 1.73-.34.52-.97.67-1.44 1-.04.02-.06.06-.09.1-.7-.06-1.21-.48-1.57-1.4Zm28.05 4.47c.88-.5 1.66.28 1.94 1.08.38 1.14-.24 1.73-.65 2.7l-.01.05c-2 .07-3.58-2.55-1.28-3.83Zm27.68 10.16a43.32 43.32 0 0 1-8.25 1.34c-.17-.07-.34-.16-.5-.24.07-2.74-.81-5.53-1.1-8.23-.22-2.09-.4-4.38-1.36-6.27-1.25-2.44-3.8-5.88-6.85-4.3-3.67 1.9-1.1 8.36.24 10.8 1.6 2.9 3.9 6.65 7.01 8.36-2.75.05-5.52-.1-8.3-.41-3.02-1.04-4.65-3.88-6.29-6.47 1.74-.43 1.82-3.1 1.22-4.51-.8-1.87-2.59-2.66-4.42-1.85-2.08.91-2.68 3.48-1.46 5.34.52.8 1.39 1.42 2.34 1.53.58.07 1.08-.04 1.53-.26.24 1.61 1.34 3 2.38 4.18a9.8 9.8 0 0 0 1.88 1.68 161.4 161.4 0 0 1-12.88-2.5c-.02-1.95-.48-3.83-.36-5.8.12-2.03.32-4.04.27-6.08-.08-2.79-1.04-6.16-3.87-7.23-6.07-2.31-6.06 6.03-4.84 9.82-.07 2.03 2.26 4.62 3.3 6a11.13 11.13 0 0 0 2.8 2.66c-3.87-.9-7.71-1.8-11.48-2.52-.94-.87-1.8-1.84-2.53-2.9-.95-1.35-1.25-2.8-1.72-4.28 3.23-.14 3.64-9-1.76-7.18-2.25.76-2.9 3.37-1.95 5.42.47 1.02 1.75 2.05 2.82 1.93 0 1.44.84 2.99 1.53 4.12.6.97 1.34 1.87 2.2 2.62a71.5 71.5 0 0 0-8.73-1.04l-.38-.24c-.62-4.32.52-10.1-2.52-13.64-1.6-1.86-5.19-4.46-7.26-1.66-2.04 2.76-.13 6.25 1.46 8.74a19.87 19.87 0 0 0 6.8 6.73 50.4 50.4 0 0 0-7.64.38c-.96-.55-1.91-1.08-2.85-1.65-1.39-.84-2.57-1.9-3.88-2.85.4-.54.69-1.18.88-1.82.72-2.36.07-5.32-2.68-5.63a3.97 3.97 0 0 0-3.73 1.71c-.74 1.18-.37 2.73.21 3.88a4.6 4.6 0 0 0 1.41 1.65c0 .06.02.13.04.18a2 2 0 0 0 2.77.98c.26-.13.5-.3.7-.5 1.33 2.03 3.64 3.26 5.9 4.22a34.37 34.37 0 0 0-7.4 2.01c-2.67-6.73-10.72-9.59-17.4-9.6-.34 0-.55.26-.58.58-.65 7.13 8.7 10.98 15.07 10.4a23.38 23.38 0 0 0-8.57 7.96 2.53 2.53 0 0 0-1.14-.65c-1.38-.35-2.99.57-3.77 1.68-.9 1.3-.75 3.1.3 4.26.97 1.1 2.6.67 3.6-.13a3.86 3.86 0 0 0 1.49-3.67.4.4 0 0 0-.06-.15v-.04a.58.58 0 0 0 .19-.12 55.83 55.83 0 0 1 6.3-5.3c-3.44 3.37-6.79 8.22-4.89 12.3 2.31 4.97 7.3 1.05 7.58-3.09 0-.15-.12-.22-.25-.2.28-1.38.33-2.82.47-4.2a39 39 0 0 1 .88-5.13c.2-.83.52-1.55.68-2.34a30.32 30.32 0 0 1 8.51-2.75 9.01 9.01 0 0 0-2.33 2.6c-.62.97-1.4 2.4-1.72 3.74a2.7 2.7 0 0 0-.34-.02c-1.1.02-2.02.76-2.6 1.67-1.3 2.01-.21 4.45 2.15 4.78 1.94.27 3.2-1.5 3.4-3.28.1-.94-.25-1.9-.9-2.27-.16-.2-.34-.36-.54-.5.38-.8.61-1.76.9-2.53.7-1.8 1.64-3.35 3.25-4.39l1.74-.19c6.11-.54 12.28.39 18.33 1.62-6.25.45-14.26 6.56-11.18 12.8 1.67 3.37 5.83 1.24 7.51-.73 3.1-3.63 3.92-8.61 8.15-11.1l2.25.5c2.08.45 4.19.93 6.32 1.41a11.88 11.88 0 0 0-3.33 4.93 3.1 3.1 0 0 0-1.19-.23c-1.97 0-3.8 1.7-3.68 3.77.13 2.27 2.25 2.99 4.09 2.18a3.14 3.14 0 0 0 1.8-1.82c.13-.43.1-.81-.03-1.15a2.05 2.05 0 0 0-.28-2.23c.43-.64.76-1.33 1.13-2.03.6-1.17 1.36-2.26 2.2-3.25 4.47.99 9.02 1.93 13.58 2.47l-.1.15c-2.66 1.58-5.23 3.83-6.31 6.79-.9 2.43-.48 6.36 2.45 7.16 2.36.65 4.04-3.02 4.76-4.64 1.37-3.1 1.91-5.98 1.2-9.26 2.42.21 4.83.29 7.22.2a10.05 10.05 0 0 0-1.7 3.59 8.38 8.38 0 0 0-.3 2.49c-.25.12-.48.27-.69.44-1.44 1.22-2.25 3.62-1.16 5.33a3.08 3.08 0 0 0 5.29-.25 3.98 3.98 0 0 0-.1-3.78 2.27 2.27 0 0 0-1.49-1.88l-.25-.07c.04-.64.05-1.28.13-1.88.21-1.4.71-2.78 1.35-4.04a37.4 37.4 0 0 0 10.21-2.03c.67-.24.4-1.29-.3-1.1Z" fill="#8E9892" fill-opacity=".7"/></svg>