<svg viewBox="0 0 60 60" fill="none" xmlns="http://www.w3.org/2000/svg"><path d="M16.63 21.28s-2.15 1.3-2.63 3.41a12.1 12.1 0 0 0 0 4.45s-3.38 1.4-3.38 5.77c0 4.37 2.85 5.6 2.85 5.6s.03 5.17 3.21 7.95a10.9 10.9 0 0 0 6.53 2.8s1.73 3.67 6.84 3.67c5.11 0 6.85-3.67 6.85-3.67s3.46-.5 6.52-2.8c3.06-2.29 2.98-7.94 2.98-7.94s3.08-1.24 3.08-5.61c0-4.38-3.37-5.77-3.37-5.77s.48-2.32 0-4.45c-.48-2.12-2.63-3.4-2.63-3.4" fill="#B22EC8"/><path d="M46.2 27.86c0-8.94-7.23-11.45-16.17-11.45-8.93 0-16.17 2.52-16.17 11.45a16.17 16.17 0 0 0 32.35 0Z" fill="#B22EC8"/><path d="M30.55 54.92s4.37-3.05 4.08-10.09c1.89-1.96 2.47-4.59.76-7.78 2.89-4.11 2.59-8.56-.87-11.94 1.43-2.05.68-3.83-.93-5.16 0 0 4.63 2.27 8.18-.98 0 0 7.45 5.36 4.34 10.17 0 0 8.23 5.56.29 11.38 0 0 1.16 8.86-9.3 10.7 0 0-2.75 3.12-6.55 3.7Z" fill="#6A107A"/><path d="M46.48 9.38c-3.55 16.61-14.48 10.95-15.96 8.03-1.48-2.92-.05-14.55 15.96-8.03Z" fill="#0F805D"/><path d="M13.62 9.38c3.56 16.61 14.48 10.95 15.96 8.03 1.49-2.92.05-14.55-15.96-8.03Z" fill="#0F805D"/><path d="M46.48 9.38c-3.55 16.61-14.48 10.95-15.96 8.03-1.48-2.92-.05-14.55 15.96-8.03v0Z" stroke="#000" stroke-width="2" stroke-miterlimit="10" stroke-linecap="round" stroke-linejoin="round"/><path d="M37.98 12.74c-2.61 1-5.95 2.62-7.43 4.72m-16.93-8.08c3.56 16.61 14.48 10.95 15.96 8.03 1.49-2.92.05-14.55-15.96-8.03v0Z" stroke="#000" stroke-width="2" stroke-miterlimit="10" stroke-linecap="round" stroke-linejoin="round"/><path d="M22.13 12.74c2.6 1 5.95 2.62 7.43 4.72m-12.93 3.82s-2.15 1.3-2.63 3.41a12.1 12.1 0 0 0 0 4.45s-3.38 1.4-3.38 5.77c0 4.37 2.85 5.6 2.85 5.6s.03 5.17 3.21 7.95a10.9 10.9 0 0 0 6.53 2.8s1.73 3.68 6.84 3.68c5.11 0 6.85-3.68 6.85-3.68s3.46-.5 6.52-2.8c3.06-2.29 2.98-7.94 2.98-7.94s3.08-1.24 3.08-5.61c0-4.38-3.37-5.77-3.37-5.77s.48-2.32 0-4.45c-.48-2.12-2.63-3.4-2.63-3.4" stroke="#000" stroke-width="2" stroke-miterlimit="10" stroke-linecap="round" stroke-linejoin="round"/><path d="M35.2 24.56s-2.18 2.3-4.87 2.3m-5.05-2.3s2.18 2.3 4.87 2.3m11.57 6.08a4.5 4.5 0 0 1-4.62 4.36m-4.8-4.36a4.5 4.5 0 0 0 4.62 4.36m-8.68-4.36a4.5 4.5 0 0 1-4.62 4.36m-4.8-4.36a4.5 4.5 0 0 0 4.62 4.36m11.48 7.59c-.87 1.15-2.63 1.94-4.67 1.94m-4.97-2.09c.83 1.24 2.66 2.1 4.77 2.1m-4.8-1.8c0 1.04-.65 1.97-1.67 2.62m11.4-2.62c0 1.13.75 2.13 1.94 2.8m-17.42-12.28a4.4 4.4 0 0 1-3.28 4.18m4.62-15.2a4.65 4.65 0 0 1-4.62 4.66m22.42-4.67a4.65 4.65 0 0 0 4.62 4.67m-2.22 6.36a4.39 4.39 0 0 0 3.04 4.1" stroke="#000" stroke-width="2" stroke-miterlimit="10" stroke-linecap="round" stroke-linejoin="round"/></svg>